<svg width="100%" height="100%" id="svg" viewBox="0 0 1440 600" xmlns="http://www.w3.org/2000/svg" class="transition duration-300 ease-in-out delay-150"><defs><linearGradient id="gradient" x1="0%" y1="50%" x2="100%" y2="50%"><stop offset="5%" stop-color="#002bdc88"></stop><stop offset="95%" stop-color="#32ded488"></stop></linearGradient></defs><path d="M 0,600 C 0,600 0,200 0,200 C 99.48325358851676,179.37799043062202 198.96650717703352,158.75598086124404 292,159 C 385.0334928229665,159.24401913875596 471.61722488038276,180.35406698564594 559,193 C 646.3827751196172,205.64593301435406 734.5645933014356,209.82775119617222 848,222 C 961.4354066985644,234.17224880382778 1100.1244019138753,254.33492822966508 1203,252 C 1305.8755980861247,249.66507177033492 1372.9377990430623,224.83253588516746 1440,200 C 1440,200 1440,600 1440,600 Z" stroke="none" stroke-width="0" fill="url(#gradient)" class="transition-all duration-300 ease-in-out delay-150 path-0"></path><defs><linearGradient id="gradient" x1="0%" y1="50%" x2="100%" y2="50%"><stop offset="5%" stop-color="#002bdcff"></stop><stop offset="95%" stop-color="#32ded4ff"></stop></linearGradient></defs><path d="M 0,600 C 0,600 0,400 0,400 C 102.01913875598083,429.85645933014354 204.03827751196167,459.7129186602871 295,454 C 385.96172248803833,448.2870813397129 465.8660287081341,407.0047846889952 573,403 C 680.1339712918659,398.9952153110048 814.4976076555023,432.26794258373207 908,435 C 1001.5023923444977,437.73205741626793 1054.1435406698565,409.92344497607655 1136,399 C 1217.8564593301435,388.07655502392345 1328.9282296650717,394.0382775119617 1440,400 C 1440,400 1440,600 1440,600 Z" stroke="none" stroke-width="0" fill="url(#gradient)" class="transition-all duration-300 ease-in-out delay-150 path-1"></path></svg>